SplineFontDB: 3.0
FontName: Slime
FullName: Slime
FamilyName: Slime
Weight: Medium
Copyright: Gamers Associate
UComments: "2011-4-25: Created." 
Version: 001.000
ItalicAngle: -9.7
UnderlinePosition: -102
UnderlineWidth: 51
Ascent: 819
Descent: 205
LayerCount: 2
Layer: 0 0 "Arri+AOgA-re"  1
Layer: 1 0 "Avant"  0
NeedsXUIDChange: 1
XUID: [1021 243 1213699873 11670229]
FSType: 0
OS2Version: 0
OS2_WeightWidthSlopeOnly: 0
OS2_UseTypoMetrics: 1
CreationTime: 1303763888
ModificationTime: 1305238621
PfmFamily: 17
TTFWeight: 500
TTFWidth: 5
LineGap: 92
VLineGap: 0
OS2TypoAscent: 0
OS2TypoAOffset: 1
OS2TypoDescent: 0
OS2TypoDOffset: 1
OS2TypoLinegap: 92
OS2WinAscent: 0
OS2WinAOffset: 1
OS2WinDescent: 0
OS2WinDOffset: 1
HheadAscent: 0
HheadAOffset: 1
HheadDescent: 0
HheadDOffset: 1
OS2Vendor: 'PfEd'
DEI: 91125
LangName: 1033 
Encoding: ISO8859-1
UnicodeInterp: none
NameList: Adobe Glyph List
DisplaySize: -36
AntiAlias: 1
FitToEm: 1
WinInfo: 0 13 6
Grid
-1024 393.714 m 0
 2048 393.714 l 0
405.429 1331 m 0
 405.429 -717 l 0
EndSplineSet
TeXData: 1 0 -284961 346030 173015 115343 0 1048576 115343 783286 444596 497025 792723 393216 433062 380633 303038 157286 324010 404750 52429 2506097 1059062 262144
BeginChars: 256 65

StartChar: A
Encoding: 65 65 0
Width: 668
VWidth: 0
Flags: HW
LayerCount: 2
Fore
SplineSet
109 -10 m 0
 44 -10 28 27 28 63 c 2
 28 68 l 2
 28 86 33 115 38 129 c 0
 117 343 135 455 195 603 c 0
 220 666 262 744 279 759 c 0
 292 771 335 777 378 777 c 0
 409 777 441 774 460 766 c 0
 533 738 583 629 602 459 c 0
 647 65 652 132 652 66 c 0
 652 29 643 -2 592 -2 c 0
 474 -2 501 197 474 197 c 0
 469 197 474 185 396 185 c 0
 336 185 258 192 239 202 c 0
 232 206 227 209 223 209 c 0
 217 209 214 200 207 173 c 2
 190 109 l 1
 176 66 l 2
 160 16 154 -10 109 -10 c 0
473 292 m 0
 473 315 434 527 434 572 c 0
 434 591 412 662 399 662 c 0
 375 662 304 493 278 404 c 0
 268 366 252 345 252 337 c 0
 252 321 406 324 446 299 c 0
 468 286 473 283 473 292 c 0
EndSplineSet
Validated: 1
EndChar

StartChar: B
Encoding: 66 66 1
Width: 697
VWidth: 0
Flags: HW
LayerCount: 2
Fore
SplineSet
463 763 m 0
 503 763 513 749 541 736 c 1
 568 715 581 695 593 667 c 1
 595 653 597 639 597 624 c 0
 597 587 595 550 560 517 c 1
 524 481 l 1
 557 463 l 1
 595 429 628 401 648 334 c 0
 655 310 662 280 662 264 c 2
 662 212 l 2
 662 69 541 -1 334 -1 c 0
 319 -1 304 0 288 0 c 0
 287 0 286 0 285 0 c 0
 246 0 209 10 199 10 c 0
 197 10 196 10 196 9 c 0
 196 3 173 0 149 0 c 0
 131 0 112 2 102 6 c 0
 75 17 57 73 57 146 c 0
 57 233 92 497 115 552 c 0
 117 556 118 559 118 562 c 0
 118 569 109 571 85 571 c 1
 65 577 43 602 43 625 c 0
 43 658 53 686 98 704 c 0
 206 746 305 757 414 766 c 1
 421 766 l 2
 438 766 451 763 463 763 c 0
469 609 m 1
 463 641 465 646 428 646 c 2
 414 646 l 2
 371 646 279 630 224 614 c 2
 201 607 l 1
 225 597 243 562 243 532 c 0
 243 532 223 314 214 248 c 0
 212 242 208 187 208 187 c 0
 208 164 217 160 253 160 c 0
 266 160 282 161 303 161 c 2
 340 161 l 2
 352 161 365 162 379 165 c 0
 437 178 490 179 504 252 c 0
 505 256 506 261 506 267 c 0
 506 285 500 309 500 320 c 0
 500 343 487 353 477 368 c 0
 455 402 370 404 315 428 c 0
 293 437 280 442 280 467 c 0
 280 477 282 491 287 509 c 1
 312 522 469 542 469 607 c 2
 469 609 l 1
EndSplineSet
Validated: 1
EndChar

StartChar: C
Encoding: 67 67 2
Width: 617
VWidth: 0
Flags: HW
LayerCount: 2
Fore
SplineSet
187 355 m 0
 187 257 203 158 370 158 c 0
 422 158 475 170 508 170 c 0
 554 170 572 128 572 108 c 0
 572 66 518 2 361 2 c 0
 302 2 243 11 202 30 c 0
 133 61 68 127 43 191 c 0
 25 237 16 288 16 340 c 0
 16 455 64 561 159 659 c 0
 225 727 348 759 395 759 c 2
 399 759 l 1
 411 760 422 760 432 760 c 0
 540 760 576 732 576 690 c 0
 576 677 573 664 565 651 c 0
 561 644 553 642 543 642 c 0
 536 642 528 643 520 643 c 0
 505 643 487 644 467 644 c 0
 451 644 439 645 425 645 c 1
 421 642 389 645 370 634 c 24
 273 579 187 467 187 355 c 0
EndSplineSet
Validated: 1
EndChar

StartChar: D
Encoding: 68 68 3
Width: 758
VWidth: 0
Flags: HW
LayerCount: 2
Fore
SplineSet
64 22 m 0
 46 40 36 55 32 78 c 0
 32 80 31 83 31 85 c 0
 31 108 54 140 78 150 c 0
 119 167 108 178 125 267 c 0
 161 452 149 522 161 563 c 0
 166 578 161 583 143 583 c 2
 129 583 l 2
 117 583 102 585 89 598 c 0
 66 621 57 636 57 658 c 0
 57 662 58 665 58 669 c 0
 61 701 72 698 131 728 c 1
 200 747 234 760 302 763 c 1
 316 763 l 2
 442 763 543 742 608 683 c 0
 691 607 724 522 724 422 c 0
 724 389 717 355 711 316 c 0
 683 145 549 36 243 16 c 0
 190 12 154 5 128 5 c 0
 74 5 69 17 64 22 c 0
552 409 m 0
 552 565 453 615 379 615 c 0
 365 615 352 617 342 617 c 0
 337 617 332 616 328 615 c 1
 318 607 277 214 277 195 c 0
 277 192 285 192 291 192 c 18
 322 192 l 2
 332 192 343 193 357 197 c 0
 433 218 493 251 527 302 c 0
 545 328 552 375 552 409 c 0
EndSplineSet
Validated: 1
EndChar

StartChar: E
Encoding: 69 69 4
Width: 671
VWidth: 0
Flags: HW
LayerCount: 2
Fore
SplineSet
231 154 m 0
 349 154 405 201 452 201 c 0
 477 201 498 191 524 171 c 0
 546 154 554 137 554 109 c 1
 543 77 542 66 512 52 c 0
 439 16 351 3 275 3 c 0
 131 3 90 53 61 97 c 0
 36 135 23 170 23 216 c 0
 23 336 137 609 137 629 c 0
 137 631 153 650 172 672 c 0
 218 725 317 771 426 776 c 0
 456 777 485 780 512 780 c 0
 567 780 612 769 635 717 c 0
 636 714 637 711 637 707 c 0
 637 677 595 626 561 626 c 2
 559 626 l 1
 467 623 392 612 343 591 c 0
 290 569 271 553 271 541 c 0
 271 527 297 521 322 521 c 2
 333 521 l 1
 349 522 363 523 375 523 c 0
 402 523 420 518 441 494 c 1
 449 478 450 476 452 452 c 1
 448 418 435 412 298 385 c 2
 228 371 l 1
 206 302 l 2
 189 248 181 212 181 189 c 0
 181 163 185 154 231 154 c 0
EndSplineSet
Validated: 1
EndChar

StartChar: F
Encoding: 70 70 5
Width: 605
VWidth: 0
Flags: HW
LayerCount: 2
Fore
SplineSet
84 26 m 1
 60 57 49 82 47 187 c 1
 49 210 51 225 51 237 c 0
 51 266 44 269 37 311 c 0
 36 316 36 321 36 326 c 0
 36 346 42 369 52 381 c 0
 63 393 74 437 78 467 c 0
 86 531 118 625 149 678 c 0
 183 736 319 764 454 766 c 0
 456 766 458 766 460 766 c 0
 553 766 596 743 596 686 c 1
 595 655 580 641 571 638 c 1
 521 628 l 2
 409 605 304 610 283 573 c 0
 261 533 236 460 236 421 c 0
 236 406 240 397 249 397 c 0
 252 397 255 397 259 399 c 1
 266 399 273 399 280 399 c 0
 317 399 339 396 362 377 c 1
 380 359 388 342 388 327 c 0
 388 295 349 272 291 264 c 2
 214 253 l 1
 206 131 l 2
 199 20 193 -2 138 -2 c 0
 117 -2 103 4 84 26 c 1
EndSplineSet
Validated: 1
EndChar

StartChar: G
Encoding: 71 71 6
Width: 690
VWidth: 0
Flags: HW
LayerCount: 2
Fore
SplineSet
579 136 m 1
 568 116 470 0 324 -0 c 0
 204 -0 95 77 49 190 c 0
 32 231 19 275 19 318 c 0
 19 327 20 337 21 347 c 0
 31 423 15 473 111 614 c 1
 192 692 210 716 345 754 c 0
 351 756 358 756 365 756 c 0
 369 756 374 756 378 756 c 0
 520 756 565 709 565 677 c 0
 565 648 537 624 484 623 c 0
 464 623 439 625 415 625 c 0
 397 625 380 625 364 620 c 0
 243 581 173 475 173 359 c 0
 173 312 180 263 212 214 c 24
 234 180 261 165 303 164 c 1
 314 164 l 2
 362 164 422 186 450 215 c 1
 461 215 466 217 466 220 c 0
 466 230 401 247 389 269 c 0
 383 279 380 294 380 308 c 0
 380 337 393 368 422 371 c 1
 426 371 l 2
 466 371 505 346 538 325 c 2
 660 248 l 1
 666 239 669 228 669 218 c 0
 669 190 649 161 622 161 c 0
 620 161 617 162 615 162 c 0
 606 162 597 165 590 165 c 0
 582 165 577 162 577 151 c 0
 577 147 577 142 579 136 c 1
EndSplineSet
Validated: 1
EndChar

StartChar: H
Encoding: 72 72 7
Width: 670
VWidth: 0
Flags: HW
LayerCount: 2
Fore
SplineSet
403 18 m 0
 376 46 369 47 369 75 c 0
 369 86 370 100 371 120 c 2
 376 197 l 1
 285 191 l 2
 235 188 194 183 192 182 c 0
 190 181 184 146 180 104 c 0
 171 23 162 8 114 8 c 0
 95 8 75 20 52 47 c 0
 31 71 22 76 22 112 c 0
 22 139 27 185 36 272 c 0
 47 384 114 699 133 738 c 0
 143 759 160 769 177 769 c 0
 189 769 201 765 212 756 c 0
 232 740 260 670 260 641 c 0
 260 628 254 628 237 509 c 0
 228 445 219 378 215 359 c 2
 208 324 l 1
 304 327 l 2
 357 329 400 330 400 330 c 1
 437 507 l 2
 457 604 482 696 494 722 c 0
 512 764 519 769 548 769 c 0
 591 769 643 732 643 702 c 0
 643 672 608 554 574 356 c 0
 548 208 543 209 532 87 c 0
 523 -18 514 -21 473 -21 c 0
 450 -21 430 -10 403 18 c 0
EndSplineSet
Validated: 1
EndChar

StartChar: I
Encoding: 73 73 8
Width: 353
VWidth: 0
Flags: HW
LayerCount: 2
Fore
SplineSet
91 43 m 0
 57 69 42 104 42 171 c 0
 42 260 79 467 96 527 c 2
 138 676 l 2
 153 732 159 746 194 746 c 0
 202 746 212 745 223 744 c 0
 259 741 312 698 312 645 c 0
 312 579 225 275 222 136 c 0
 221 94 215 50 209 39 c 0
 202 26 184 19 162 19 c 0
 138 19 111 27 91 43 c 0
EndSplineSet
Validated: 1
EndChar

StartChar: J
Encoding: 74 74 9
Width: 586
VWidth: 0
Flags: HW
LayerCount: 2
Fore
SplineSet
292 -7 m 0
 168 -7 68 85 34 123 c 1
 19 134 12 155 11 188 c 1
 11 198 l 2
 11 231 20 244 43 261 c 0
 56 270 66 271 74 271 c 0
 82 271 90 269 99 262 c 0
 129 239 233 167 264 167 c 0
 268 167 305 182 307 184 c 0
 344 215 349 295 362 369 c 24
 387 514 383 712 404 744 c 0
 416 763 432 769 462 769 c 0
 496 769 515 766 538 733 c 0
 551 713 555 702 555 685 c 0
 555 672 553 656 551 631 c 1
 538 524 544 461 518 309 c 0
 495 179 481 78 437 32 c 0
 413 6 345 -8 316 -8 c 0
 306 -8 298 -7 292 -7 c 0
EndSplineSet
Validated: 1
EndChar

StartChar: K
Encoding: 75 75 10
Width: 611
VWidth: 0
Flags: HW
LayerCount: 2
Fore
SplineSet
222 648 m 0
 222 604 212 560 212 501 c 0
 212 483 213 472 214 471 c 1
 284 534 337 564 434 676 c 0
 466 713 495 732 522 732 c 0
 556 732 581 704 581 657 c 0
 581 628 576 615 526 553 c 0
 495 515 446 450 413 422 c 0
 388 401 381 392 381 385 c 0
 381 379 386 374 391 366 c 0
 394 361 408 333 430 302 c 2
 485 226 l 1
 545 151 586 100 586 57 c 0
 586 40 580 25 567 10 c 1
 556 4 542 2 528 2 c 0
 504 2 468 10 460 16 c 0
 420 47 271 236 257 269 c 1
 242 293 l 1
 214 271 l 2
 190 252 199 251 194 150 c 0
 191 88 193 35 186 27 c 0
 179 19 127 -4 103 -4 c 0
 68 -4 57 19 41 43 c 0
 29 61 23 78 23 125 c 0
 23 143 24 167 26 197 c 2
 67 704 l 1
 78 753 76 786 110 786 c 0
 114 786 119 785 125 784 c 0
 176 775 222 747 222 648 c 0
EndSplineSet
Validated: 1
EndChar

StartChar: L
Encoding: 76 76 11
Width: 587
VWidth: 0
Flags: HW
LayerCount: 2
Fore
SplineSet
206 755 m 0
 285 755 305 671 305 642 c 0
 305 612 289 566 255 441 c 0
 238 381 209 245 209 192 c 0
 209 179 211 171 216 171 c 2
 217 171 l 1
 315 173 l 1
 481 186 l 1
 545 177 539 164 557 128 c 0
 561 119 563 109 563 98 c 0
 563 84 560 70 555 61 c 0
 538 28 556 27 336 7 c 0
 252 -1 201 -4 166 -4 c 0
 132 -4 114 -1 97 6 c 0
 61 21 30 72 30 119 c 0
 30 163 38 264 56 323 c 0
 62 343 91 502 119 592 c 0
 169 754 169 755 206 755 c 0
EndSplineSet
Validated: 1
EndChar

StartChar: M
Encoding: 77 77 12
Width: 709
VWidth: 0
Flags: HW
LayerCount: 2
Fore
SplineSet
586 755 m 0
 636 755 669 676 669 633 c 0
 669 570 645 415 638 307 c 2
 620 21 l 1
 601 7 584 2 569 2 c 0
 535 2 510 27 494 40 c 0
 476 54 465 111 461 133 c 1
 484 476 l 1
 484 477 l 2
 484 479 483 480 481 480 c 0
 469 480 387 410 356 410 c 0
 326 410 248 490 238 494 c 1
 225 435 213 310 213 294 c 0
 213 203 201 105 199 74 c 0
 196 24 188 17 160 7 c 0
 151 4 143 2 135 2 c 0
 123 2 112 6 98 15 c 0
 52 43 43 79 43 141 c 0
 43 172 48 461 86 655 c 0
 99 722 132 754 169 754 c 0
 173 754 176 754 180 753 c 1
 239 712 276 644 326 607 c 0
 347 591 362 584 375 584 c 0
 406 584 424 619 457 646 c 0
 501 683 542 755 586 755 c 0
EndSplineSet
Validated: 1
EndChar

StartChar: N
Encoding: 78 78 13
Width: 644
VWidth: 0
Flags: HW
LayerCount: 2
Fore
SplineSet
381 23 m 1
 352 65 351 73 326 121 c 2
 227 311 l 1
 221 326 212 341 212 318 c 0
 211 293 183 23 176 8 c 0
 172 -1 161 -5 146 -5 c 0
 121 -5 85 7 51 28 c 1
 41 40 37 55 37 83 c 0
 37 123 41 191 51 319 c 0
 64 490 72 706 82 724 c 0
 91 742 113 750 143 750 c 0
 162 750 184 746 208 740 c 1
 222 729 265 654 318 526 c 0
 366 413 401 337 427 291 c 1
 429 321 l 2
 432 368 442 483 442 603 c 2
 442 644 l 1
 441 678 441 704 441 724 c 0
 441 773 444 782 450 782 c 0
 456 782 461 784 467 784 c 0
 527 784 604 712 604 629 c 0
 604 370 569 195 561 111 c 1
 549 73 539 20 506 0 c 1
 488 -6 473 -8 459 -8 c 0
 418 -8 394 13 381 23 c 1
EndSplineSet
Validated: 1
EndChar

StartChar: O
Encoding: 79 79 14
Width: 673
VWidth: 0
Flags: HW
LayerCount: 2
Fore
SplineSet
314 -4 m 0
 183 -4 13 81 13 300 c 0
 13 369 29 444 63 516 c 0
 97 588 161 648 254 708 c 0
 280 725 303 728 315 731 c 0
 329 735 344 738 357 738 c 2
 361 738 l 2
 394 738 414 717 421 685 c 1
 428 685 l 2
 458 685 478 675 497 661 c 0
 539 630 580 597 602 546 c 1
 625 513 638 414 638 351 c 0
 638 342 637 334 637 327 c 0
 631 243 622 171 540 90 c 0
 481 31 404 -4 314 -4 c 0
347 169 m 1
 418 202 448 217 485 295 c 0
 493 312 495 335 495 359 c 0
 495 403 484 451 473 482 c 0
 455 535 393 574 372 605 c 2
 363 618 l 1
 351 603 l 1
 250 523 162 433 162 311 c 0
 162 306 162 300 162 294 c 0
 162 288 162 282 164 276 c 0
 177 234 207 171 332 169 c 0
 337 169 342 169 347 169 c 1
EndSplineSet
Validated: 1
EndChar

StartChar: P
Encoding: 80 80 15
Width: 633
VWidth: 0
Flags: HW
LayerCount: 2
Fore
SplineSet
267 765 m 0
 444 765 618 687 618 553 c 0
 618 530 608 497 602 471 c 0
 577 365 437 253 323 253 c 0
 312 253 301 254 290 256 c 1
 284 256 279 257 274 257 c 0
 245 257 229 277 221 277 c 0
 220 277 219 276 219 275 c 0
 219 216 210 159 202 37 c 1
 194 28 171 0 153 0 c 0
 145 0 132 -2 122 -2 c 0
 115 -2 109 -1 105 2 c 0
 72 29 58 69 58 126 c 0
 58 210 102 538 112 590 c 0
 117 618 114 615 92 608 c 1
 65 614 44 638 39 684 c 1
 44 702 56 723 79 737 c 1
 151 755 210 765 267 765 c 0
323 420 m 0
 324 420 325 420 326 420 c 0
 401 420 464 511 464 546 c 0
 464 548 464 551 463 553 c 1
 463 570 393 634 327 634 c 2
 300 634 l 2
 249 634 266 620 240 429 c 0
 232 371 232 375 259 407 c 0
 269 419 304 413 323 420 c 0
EndSplineSet
Validated: 1
EndChar

StartChar: Q
Encoding: 81 81 16
Width: 685
VWidth: 0
Flags: HW
LayerCount: 2
Fore
SplineSet
410 765 m 0
 455 765 459 728 459 717 c 0
 459 693 414 651 385 609 c 17
 306 583 248 536 210 450 c 1
 209 450 l 2
 198 450 172 382 172 315 c 0
 172 284 178 253 194 230 c 1
 224 203 232 182 305 171 c 1
 318 171 l 1
 339 174 346 177 346 186 c 0
 346 204 330 225 330 242 c 0
 330 255 333 262 339 266 c 0
 349 272 361 276 373 276 c 0
 391 276 410 269 428 251 c 2
 452 228 l 1
 492 258 l 1
 529 295 542 335 542 378 c 0
 542 389 540 400 540 412 c 0
 540 451 521 503 505 531 c 0
 486 564 445 576 445 620 c 0
 445 638 451 650 485 650 c 0
 508 650 537 643 557 631 c 0
 581 616 660 544 667 407 c 0
 668 390 670 367 670 341 c 0
 670 269 656 173 576 102 c 1
 531 73 l 1
 541 25 l 2
 545 5 548 -11 548 -24 c 0
 548 -53 536 -67 511 -69 c 1
 501 -69 l 2
 490 -69 479 -68 473 -66 c 0
 452 -58 417 -27 410 -4 c 0
 407 7 403 11 394 11 c 0
 380 11 366 2 300 2 c 2
 298 2 l 2
 155 2 18 99 18 278 c 0
 18 349 32 440 80 534 c 0
 125 622 329 765 410 765 c 0
EndSplineSet
Validated: 1
EndChar

StartChar: R
Encoding: 82 82 17
Width: 673
VWidth: 0
Flags: HW
LayerCount: 2
Fore
SplineSet
27 640 m 1
 41 693 163 765 354 765 c 0
 599 765 652 623 652 531 c 0
 652 490 642 452 627 421 c 0
 592 350 456 297 416 289 c 1
 416 286 429 249 501 176 c 0
 571 104 602 88 602 60 c 0
 602 34 568 2 524 2 c 0
 415 2 258 271 234 271 c 0
 220 271 211 119 211 89 c 0
 211 58 214 58 214 37 c 0
 214 3 193 -11 166 -11 c 0
 144 -11 117 -2 95 12 c 1
 79 31 72 42 72 88 c 0
 72 295 116 525 116 554 c 0
 116 567 113 571 108 571 c 0
 102 571 91 564 76 564 c 1
 38 573 35 613 27 640 c 1
349 639 m 0
 264 639 205 619 205 614 c 0
 205 612 213 610 222 606 c 1
 235 594 246 582 249 570 c 1
 252 567 254 547 254 522 c 0
 254 508 253 492 252 478 c 2
 246 408 l 1
 257 412 l 1
 328 415 357 413 398 427 c 0
 458 449 507 491 507 536 c 2
 507 537 l 1
 506 595 458 613 406 633 c 0
 390 639 369 639 349 639 c 0
EndSplineSet
Validated: 1
EndChar

StartChar: S
Encoding: 83 83 18
Width: 676
VWidth: 0
Flags: HW
LayerCount: 2
Fore
SplineSet
549 623 m 0
 356 623 217 517 217 480 c 0
 217 421 476 396 576 288 c 0
 602 260 612 234 612 208 c 0
 612 168 591 123 548 79 c 0
 491 21 396 -3 323 -3 c 0
 302 -3 282 -2 264 4 c 0
 208 24 159 68 159 94 c 2
 159 98 l 1
 162 113 174 115 226 121 c 1
 268 121 l 2
 322 121 378 125 433 180 c 1
 433 180 445 198 445 212 c 0
 445 254 258 279 222 295 c 0
 207 302 187 300 145 326 c 0
 41 389 14 424 14 490 c 0
 14 506 17 519 23 531 c 0
 61 606 169 686 232 719 c 0
 295 752 391 774 471 774 c 0
 598 774 664 705 664 656 c 0
 664 631 655 621 613 621 c 0
 575 621 594 623 549 623 c 0
EndSplineSet
Validated: 1
EndChar

StartChar: T
Encoding: 84 84 19
Width: 700
VWidth: 0
Flags: HW
LayerCount: 2
Fore
SplineSet
253 17 m 0
 209 41 199 67 199 161 c 0
 199 231 235 492 263 580 c 0
 265 586 266 590 266 593 c 0
 266 596 264 597 255 597 c 0
 245 597 229 596 202 594 c 2
 86 586 l 1
 47 626 l 2
 20 653 11 673 11 695 c 0
 11 698 12 702 12 706 c 0
 15 735 21 739 47 746 c 0
 75 753 104 757 166 757 c 0
 212 757 277 755 374 751 c 0
 652 740 616 734 662 690 c 0
 686 666 699 641 699 617 c 0
 699 604 695 592 688 581 c 0
 682 571 686 567 659 567 c 0
 637 567 594 570 506 575 c 1
 426 584 l 1
 420 545 l 2
 412 495 389 385 383 321 c 0
 380 288 365 168 361 118 c 0
 357 68 349 22 343 14 c 0
 336 5 324 0 309 0 c 0
 293 0 273 6 253 17 c 0
EndSplineSet
Validated: 1
EndChar

StartChar: U
Encoding: 85 85 20
Width: 659
VWidth: 0
Flags: HW
LayerCount: 2
Fore
SplineSet
232 686 m 0
 232 589 182 381 182 232 c 0
 182 208 188 183 209 179 c 1
 230 179 l 2
 263 179 311 184 368 236 c 1
 412 275 l 1
 438 476 l 1
 474 704 495 770 535 770 c 0
 544 770 555 767 567 761 c 0
 602 745 635 731 635 666 c 0
 635 631 586 312 570 84 c 0
 570 78 569 73 569 68 c 0
 569 64 569 60 569 56 c 0
 569 39 567 29 544 12 c 0
 542 10 505 1 502 1 c 0
 477 1 447 13 433 27 c 0
 424 36 419 42 416 69 c 1
 376 38 l 1
 345 23 328 20 300 10 c 9
 258 5 226 -3 193 -3 c 0
 156 -3 121 2 110 12 c 1
 90 24 35 55 29 142 c 0
 28 160 28 178 28 197 c 0
 28 429 83 741 139 763 c 1
 145 764 151 764 156 764 c 0
 188 764 232 748 232 686 c 0
EndSplineSet
Validated: 1
EndChar

StartChar: V
Encoding: 86 86 21
Width: 573
VWidth: 0
Flags: HW
LayerCount: 2
Fore
SplineSet
474 784 m 0
 502 782 555 778 555 674 c 0
 555 599 532 441 474 295 c 0
 447 228 434 212 408 160 c 0
 361 66 290 -15 253 -15 c 0
 223 -15 167 2 153 20 c 0
 106 81 125 128 87 341 c 0
 69 444 10 630 10 732 c 0
 10 767 36 772 39 772 c 0
 54 772 120 741 133 722 c 1
 215 532 240 279 249 247 c 2
 256 223 l 1
 276 248 l 1
 328 319 385 480 417 601 c 0
 457 754 444 763 465 782 c 0
 467 783 470 784 474 784 c 0
EndSplineSet
Validated: 1
EndChar

StartChar: W
Encoding: 87 87 22
Width: 659
VWidth: 0
Flags: HW
LayerCount: 2
Fore
SplineSet
61 758 m 1
 94 746 166 713 167 646 c 0
 167 616 193 237 210 237 c 0
 214 237 214 251 227 273 c 0
 264 340 252 371 283 371 c 0
 289 371 299 372 311 366 c 1
 331 358 360 298 360 298 c 1
 360 298 370 273 377 263 c 1
 384 270 390 286 390 286 c 1
 410 324 457 465 478 539 c 0
 498 611 529 700 538 722 c 0
 547 744 558 753 568 753 c 0
 601 753 635 664 642 625 c 1
 642 620 l 2
 642 588 614 465 545 274 c 0
 531 236 461 71 453 55 c 0
 433 18 428 3 393 1 c 0
 384 1 375 0 367 0 c 0
 341 0 322 6 309 37 c 2
 287 92 l 1
 247 38 l 2
 222 4 205 -11 186 -11 c 0
 172 -11 157 -3 136 9 c 0
 48 62 34 440 21 601 c 0
 19 626 18 653 18 678 c 0
 18 720 25 755 61 758 c 1
EndSplineSet
Validated: 1
EndChar

StartChar: X
Encoding: 88 88 23
Width: 667
VWidth: 0
Flags: HW
LayerCount: 2
Fore
SplineSet
91 -5 m 0
 52 -5 14 34 14 77 c 0
 14 111 39 109 137 257 c 2
 226 391 l 1
 209 420 l 2
 200 436 173 480 149 520 c 0
 125 560 108 602 99 614 c 0
 88 628 83 648 83 666 c 0
 83 682 87 696 97 700 c 0
 107 704 118 706 128 706 c 0
 220 706 286 565 286 565 c 0
 286 561 294 546 304 534 c 2
 322 511 l 1
 345 539 l 2
 358 554 400 606 443 667 c 0
 520 776 522 778 556 778 c 0
 583 778 596 772 617 750 c 0
 631 735 644 717 644 711 c 0
 644 694 519 502 492 480 c 0
 484 474 482 458 424 394 c 0
 415 384 421 373 421 367 c 0
 421 357 490 244 502 235 c 0
 520 221 589 94 589 80 c 0
 589 54 559 30 527 30 c 0
 471 30 429 91 387 156 c 0
 342 225 326 245 320 245 c 0
 312 245 301 227 262 174 c 2
 174 53 l 1
 141 4 141 4 105 -3 c 0
 100 -4 96 -5 91 -5 c 0
EndSplineSet
Validated: 1
EndChar

StartChar: Y
Encoding: 89 89 24
Width: 623
VWidth: 0
Flags: HW
LayerCount: 2
Fore
SplineSet
169 511 m 0
 169 426 185 395 209 395 c 0
 252 395 329 474 380 570 c 2
 436 675 l 2
 481 760 498 775 527 775 c 0
 558 775 603 728 603 695 c 0
 603 661 568 592 463 396 c 0
 340 167 337 108 316 25 c 0
 307 -12 293 -47 288 -54 c 0
 283 -61 258 -66 236 -66 c 0
 206 -66 194 -60 183 -44 c 0
 174 -31 162 -9 162 11 c 0
 162 47 182 130 200 189 c 2
 215 236 l 1
 173 252 l 2
 92 283 53 329 31 425 c 0
 28 438 26 460 26 486 c 0
 26 551 36 646 50 713 c 0
 57 746 64 759 80 759 c 0
 91 759 107 752 130 741 c 0
 164 725 179 697 179 643 c 0
 179 603 169 564 169 511 c 0
EndSplineSet
Validated: 1
EndChar

StartChar: Z
Encoding: 90 90 25
Width: 671
VWidth: 0
Flags: HW
LayerCount: 2
Fore
SplineSet
75 -3 m 0
 43 -3 15 42 15 80 c 0
 15 131 53 165 87 207 c 0
 112 238 287 428 385 595 c 1
 380 595 376 596 371 596 c 0
 224 596 180 584 131 584 c 0
 33 584 18 603 18 644 c 0
 18 708 37 712 62 717 c 0
 139 734 424 756 514 756 c 0
 571 756 580 752 603 727 c 0
 620 709 627 689 627 670 c 0
 627 624 573 567 568 560 c 2
 541 522 l 1
 493 470 327 261 298 218 c 2
 272 180 l 1
 291 180 l 2
 521 180 543 198 588 198 c 0
 646 198 660 130 660 101 c 0
 660 82 655 63 643 48 c 1
 600 21 616 36 378 10 c 0
 337 6 114 2 94 -1 c 0
 86 -2 80 -3 75 -3 c 0
EndSplineSet
Validated: 1
EndChar

StartChar: zero
Encoding: 48 48 26
Width: 547
VWidth: 0
Flags: HW
LayerCount: 2
Fore
SplineSet
167 33 m 0
 122 46 65 77 36 139 c 0
 21 171 16 196 16 220 c 0
 16 236 18 251 20 269 c 1
 25 335 70 440 127 496 c 1
 171 540 228 575 247 575 c 0
 253 575 274 577 282 591 c 0
 290 605 304 606 326 606 c 0
 329 606 332 606 335 606 c 1
 367 600 381 601 421 574 c 1
 486 513 522 446 525 348 c 0
 525 342 525 336 525 330 c 0
 525 270 516 230 496 192 c 1
 476 129 403 58 343 36 c 1
 322 27 290 24 260 24 c 0
 220 24 181 29 167 33 c 0
320 200 m 0
 372 237 393 295 393 363 c 0
 393 394 388 425 378 455 c 1
 360 481 347 504 341 504 c 0
 339 504 338 501 338 494 c 0
 338 492 338 490 338 487 c 1
 336 480 321 464 304 453 c 1
 262 436 187 366 166 320 c 0
 157 301 154 285 154 268 c 0
 154 259 155 250 156 240 c 0
 159 217 168 197 178 188 c 0
 186 181 198 176 215 176 c 0
 252 176 291 179 320 200 c 0
EndSplineSet
Validated: 1
EndChar

StartChar: one
Encoding: 49 49 27
Width: 412
VWidth: 0
Flags: HW
LayerCount: 2
Fore
SplineSet
179 11 m 0
 171 19 159 37 151 52 c 0
 145 63 142 72 142 91 c 0
 142 115 147 154 156 229 c 0
 166 312 178 383 183 397 c 0
 195 433 194 435 175 417 c 0
 160 403 131 395 105 395 c 0
 92 395 80 397 71 402 c 0
 49 414 30 446 30 473 c 0
 30 482 59 511 102 542 c 1
 158 582 195 617 229 652 c 1
 256 672 279 680 299 680 c 0
 316 680 332 674 346 666 c 1
 370 642 382 634 382 613 c 0
 382 608 381 602 379 594 c 0
 376 581 367 539 359 502 c 0
 339 409 312 242 293 79 c 0
 288 39 282 18 270 9 c 0
 259 1 242 -3 225 -3 c 0
 206 -3 188 2 179 11 c 0
EndSplineSet
Validated: 1
EndChar

StartChar: two
Encoding: 50 50 28
Width: 575
VWidth: 0
Flags: HW
LayerCount: 2
Fore
SplineSet
243 12 m 0
 74 18 54 23 31 68 c 0
 23 84 18 97 18 109 c 0
 18 130 33 148 66 177 c 0
 121 226 292 397 340 451 c 0
 383 499 403 526 403 541 c 0
 403 552 393 556 372 556 c 0
 332 556 264 521 219 478 c 0
 196 456 182 447 166 447 c 0
 156 447 144 451 129 459 c 0
 103 473 90 493 90 517 c 0
 90 560 132 613 206 649 c 0
 255 673 303 685 348 685 c 0
 408 685 461 663 500 621 c 0
 532 587 548 551 548 513 c 0
 548 460 517 402 455 339 c 1
 418 283 365 245 324 206 c 0
 290 174 276 160 276 154 c 0
 276 150 281 150 291 150 c 0
 367 149 459 138 485 127 c 0
 508 118 516 107 524 78 c 0
 527 64 529 55 529 47 c 0
 529 38 526 31 518 22 c 0
 506 9 495 5 464 5 c 0
 460 5 456 5 451 5 c 0
 423 6 329 9 243 12 c 0
EndSplineSet
Validated: 1
EndChar

StartChar: three
Encoding: 51 51 29
Width: 536
VWidth: 0
Flags: HW
LayerCount: 2
Fore
SplineSet
155 10 m 0
 56 40 45 48 22 119 c 0
 20 125 19 130 19 135 c 0
 19 153 33 163 57 163 c 0
 74 163 95 159 120 150 c 0
 160 137 192 130 220 130 c 0
 259 130 290 143 322 170 c 0
 348 192 361 212 361 233 c 0
 361 264 333 295 275 332 c 0
 211 374 192 394 192 430 c 0
 192 434 193 438 193 442 c 0
 196 469 199 472 237 477 c 0
 269 481 285 490 313 520 c 0
 332 541 348 563 348 568 c 0
 348 575 341 578 330 578 c 0
 298 578 233 553 206 526 c 0
 195 515 175 509 152 509 c 0
 123 509 112 514 94 536 c 0
 80 554 72 569 72 584 c 0
 72 603 84 620 107 639 c 0
 156 678 233 700 301 700 c 0
 341 700 377 693 405 678 c 0
 452 652 492 595 494 553 c 0
 494 552 494 550 494 549 c 0
 494 509 466 451 431 414 c 2
 421 403 l 1
 403 384 l 1
 438 340 l 2
 477 292 505 228 505 185 c 0
 505 150 477 90 449 65 c 0
 402 22 349 3 271 0 c 0
 264 -0 258 -0 251 -0 c 0
 213 -0 175 4 155 10 c 0
EndSplineSet
Validated: 1
EndChar

StartChar: four
Encoding: 52 52 30
Width: 585
VWidth: 0
Flags: HW
LayerCount: 2
Fore
SplineSet
358 -45 m 0
 328 -36 297 -11 297 36 c 0
 297 44 298 52 300 61 c 2
 312 118 l 1
 284 113 l 2
 268 110 221 105 178 102 c 0
 165 101 152 100 141 100 c 0
 79 100 49 117 24 150 c 0
 17 159 14 168 14 180 c 0
 14 216 49 277 139 434 c 0
 251 630 300 703 337 703 c 0
 350 703 361 694 373 678 c 0
 387 659 395 641 395 618 c 0
 395 587 381 547 347 485 c 0
 320 435 282 376 257 329 c 2
 213 243 l 1
 280 248 l 2
 316 251 348 257 352 260 c 0
 356 263 376 315 396 374 c 0
 446 519 457 523 485 523 c 0
 498 523 520 512 534 499 c 0
 548 485 552 478 552 463 c 0
 552 456 551 447 550 434 c 0
 548 411 535 363 515 306 c 1
 481 199 434 82 419 -7 c 0
 413 -39 386 -46 369 -46 c 0
 364 -46 361 -46 358 -45 c 0
EndSplineSet
Validated: 1
EndChar

StartChar: five
Encoding: 53 53 31
Width: 532
VWidth: 0
Flags: HW
LayerCount: 2
Fore
SplineSet
92 17 m 0
 75 22 54 31 46 36 c 0
 31 45 13 91 13 113 c 0
 13 116 14 119 15 121 c 0
 18 125 48 129 83 129 c 0
 87 129 92 129 96 129 c 0
 130 128 152 127 168 127 c 0
 182 127 192 128 202 132 c 0
 262 158 319 177 332 246 c 1
 332 249 333 251 333 254 c 0
 333 289 300 321 213 352 c 1
 159 357 83 368 67 392 c 0
 59 404 56 416 56 429 c 0
 56 460 73 497 90 547 c 0
 101 580 117 617 117 627 c 0
 117 654 137 671 151 671 c 0
 158 671 164 675 164 680 c 0
 164 686 236 689 305 689 c 0
 360 689 413 687 426 682 c 0
 463 668 484 640 484 605 c 0
 484 568 473 556 425 556 c 0
 413 556 399 557 382 558 c 0
 347 561 320 563 298 563 c 0
 262 563 242 557 233 538 c 0
 226 524 219 470 218 467 c 1
 244 464 295 449 357 433 c 1
 403 413 458 357 458 333 c 0
 458 323 462 314 467 314 c 0
 473 314 476 285 476 254 c 0
 476 226 473 197 468 186 c 0
 464 177 455 159 448 144 c 0
 425 94 349 37 295 20 c 0
 266 11 225 6 185 6 c 0
 149 6 115 10 92 17 c 0
EndSplineSet
Validated: 1
EndChar

StartChar: six
Encoding: 54 54 32
Width: 522
VWidth: 0
Flags: HW
LayerCount: 2
Fore
SplineSet
139 22 m 0
 119 32 83 57 65 77 c 0
 38 106 33 123 26 163 c 0
 23 181 21 199 21 219 c 0
 21 276 37 343 93 431 c 1
 125 478 157 535 222 602 c 1
 335 687 385 694 425 698 c 0
 426 698 428 698 429 698 c 0
 458 698 465 664 465 627 c 0
 465 601 463 599 445 588 c 0
 424 575 389 563 340 506 c 1
 316 484 307 460 299 443 c 1
 358 426 l 2
 415 401 460 368 487 292 c 0
 494 272 501 232 501 199 c 0
 501 186 499 175 497 166 c 0
 472 84 451 66 377 26 c 0
 350 11 299 3 250 3 c 0
 206 3 163 9 139 22 c 0
299 131 m 0
 353 155 367 175 372 222 c 0
 373 228 373 234 373 240 c 0
 373 264 365 281 341 307 c 0
 321 328 302 343 292 349 c 0
 284 354 269 357 256 357 c 0
 243 357 231 354 226 348 c 0
 189 299 167 238 167 191 c 0
 167 169 172 150 182 137 c 0
 189 130 219 123 250 123 c 0
 268 123 285 125 299 131 c 0
EndSplineSet
Validated: 1
EndChar

StartChar: seven
Encoding: 55 55 33
Width: 601
VWidth: 0
Flags: HW
LayerCount: 2
Fore
SplineSet
177 11 m 0
 154 25 143 44 143 85 c 0
 143 111 148 146 156 195 c 0
 180 336 190 360 284 516 c 0
 301 545 314 550 314 553 c 0
 314 554 l 0
 312 556 298 557 278 557 c 0
 266 557 253 556 239 556 c 0
 210 555 186 554 166 554 c 0
 111 554 86 559 65 570 c 0
 39 584 21 617 21 650 c 0
 21 653 22 657 22 660 c 0
 24 680 31 684 66 689 c 0
 81 691 118 692 164 692 c 0
 291 692 488 685 514 677 c 0
 548 666 579 630 579 602 c 0
 579 580 558 557 528 548 c 0
 509 542 488 536 415 430 c 0
 353 340 315 244 286 99 c 0
 278 59 269 19 267 10 c 0
 264 -0 251 -6 234 -6 c 0
 216 -6 195 -0 177 11 c 0
EndSplineSet
Validated: 1
EndChar

StartChar: eight
Encoding: 56 56 34
Width: 546
VWidth: 0
Flags: HW
LayerCount: 2
Fore
SplineSet
414 418 m 1
 456 386 502.4 317.243 515 256 c 1
 521 243 523 229 523 214 c 0
 523 172 502 125 483 96 c 1
 444 37 337 3 258 0 c 1
 211 0 133 15 112 34 c 1
 99 45 74 62 56 87 c 0
 27 128 23 129 17 178 c 0
 15 194 14 206 14 218 c 0
 14 239 18 257 27 285 c 0
 47 346 77 358 118 393 c 0
 134 407 147 420 147 421 c 0
 147 422 131 433 120 449 c 0
 109 465 99 489 97 502 c 0
 97 504 97 506 97 508 c 0
 97 552 152 629 210 671 c 0
 239 691 276 701 313 701 c 0
 397 701 485 655 495 588 c 0
 496 583 496 578 496 572 c 1
 490.896 549.139 479.432 465.706 414 418 c 1
315 158 m 1
 355 184 395 203 395 239 c 0
 395 246 394 253 391 261 c 0
 379 295 365 293 294 340 c 1
 259 356 l 1
 219 331 l 2
 193 315 180 305 170 288 c 0
 159 270 153 252 153 235 c 0
 153 215 161 196 176 176 c 1
 203 154 221 143 247 143 c 0
 264 143 285 148 315 158 c 1
380 580 m 0
 378 594 372 599 348 602 c 0
 336 603 324 604 315 604 c 0
 312 604 310 604 308 604 c 0
 292 602 240 550 222 518 c 0
 214 504 210 496 210 490 c 0
 210 485 212 482 216 479 c 0
 220 478 224 478 229 478 c 0
 279 478 380 514 380 575 c 0
 380 577 380 578 380 580 c 0
EndSplineSet
Validated: 1
EndChar

StartChar: nine
Encoding: 57 57 35
Width: 564
VWidth: 0
Flags: HW
LayerCount: 2
Fore
SplineSet
247 -3 m 0
 226 20 222 32 222 70 c 0
 222 95 228 134 235 158 c 0
 242 182 242 202 242 203 c 0
 242 204 214 206 196 206 c 0
 145 206 89 247 61 303 c 0
 41 343 23 373 23 408 c 0
 23 428 29 449 43 475 c 0
 76 535 102 576 156 630 c 0
 208 683 281 690 306 697 c 0
 326 703 342 706 357 706 c 0
 385 706 410 695 446 671 c 0
 463 659 481 649 484 649 c 0
 497 648 526 605 531 575 c 0
 532 566 534 557 534 548 c 0
 534 539 532 530 530 525 c 0
 520 504 447 327 419 255 c 0
 386 172 373 115 355 49 c 0
 345 13 333 -19 327 -23 c 0
 320 -27 312 -30 303 -30 c 0
 285 -30 264 -21 247 -3 c 0
276 341 m 0
 300 351 305 364 312 384 c 0
 318 399 345 444 366 494 c 0
 385 540 402 580 402 589 c 0
 402 590 l 0
 400 594 393 596 383 596 c 0
 358 596 316 583 294 566 c 0
 249 530 201 480 173 438 c 0
 161 419 156 395 156 374 c 0
 156 356 159 341 166 334 c 0
 170 330 183 328 199 328 c 0
 223 328 255 333 276 341 c 0
EndSplineSet
Validated: 1
EndChar

StartChar: at
Encoding: 64 64 36
Width: 642
VWidth: 0
Flags: HW
LayerCount: 2
Fore
SplineSet
262 153 m 0
 268 153 407 176 418 176 c 0
 442 176 458 150 458 127 c 0
 458 86 425 88 400 75 c 1
 351 61 308 60 247 56 c 1
 199 68 28 106 28 304 c 0
 28 433 107 563 196 615 c 0
 237 638 300 667 405 667 c 0
 500 667 616 579 616 429 c 0
 616 301 542 255 484 216 c 0
 474 209 461 206 446 206 c 0
 416 206 380 219 356 237 c 1
 349 240 343 241 336 241 c 0
 317 241 296 233 276 233 c 0
 244 233 187 264 187 323 c 2
 187 327 l 2
 187 331 186 336 186 341 c 0
 186 434 273 505 344 505 c 2
 360 505 l 2
 392 505 437 487 437 452 c 0
 437 421 404 419 380 419 c 2
 370 419 l 2
 330 419 286 390 286 355 c 2
 286 348 l 1
 288 335 298 330 311 330 c 0
 328 330 348 339 359 354 c 1
 394 359 418 381 428 381 c 0
 432 381 434 378 434 369 c 0
 434 360 432 346 428 325 c 1
 432 317 437 315 443 315 c 0
 456 315 471 332 482 339 c 1
 505 366 522 402 522 443 c 0
 522 504 493 556 416 565 c 1
 411 565 l 2
 395 565 381 567 363 567 c 0
 302 567 180 531 139 402 c 0
 129 372 123 337 123 305 c 0
 123 203 198 153 262 153 c 0
EndSplineSet
Validated: 1
EndChar

StartChar: exclam
Encoding: 33 33 37
Width: 339
VWidth: 0
Flags: HW
LayerCount: 2
Fore
SplineSet
125 24 m 0
 85 24 46 62 46 109 c 0
 46 150 58 161 75 161 c 0
 143 161 150 138 164 112 c 0
 170 100 168 91 168 81 c 0
 168 38 142 24 125 24 c 0
211 765 m 0
 226 765 290 740 290 682 c 0
 290 652 254 565 226 458 c 0
 217 425 205 393 203 358 c 1
 198 327 202 290 179 265 c 1
 174 258 167 255 161 255 c 0
 150 255 139 262 129 267 c 0
 100 279 92 311 92 340 c 2
 92 351 l 1
 97 484 166 712 194 760 c 1
 199 763 205 765 211 765 c 0
EndSplineSet
Validated: 1
EndChar

StartChar: numbersign
Encoding: 35 35 38
Width: 732
VWidth: 0
Flags: HW
LayerCount: 2
Fore
SplineSet
599 495 m 0
 643 495 684 446 684 424 c 0
 684 397 647 377 620 377 c 2
 600 377 l 2
 566 377 525 370 525 329 c 1
 522 322 520 314 520 307 c 0
 520 293 527 281 541 281 c 0
 546 281 552 282 558 285 c 1
 600 285 632 248 645 212 c 1
 642 176 600 163 568 163 c 2
 549 163 l 2
 521 163 492 160 489 126 c 1
 482 108 468 101 453 101 c 0
 432 101 409 114 400 134 c 1
 388 148 370 152 352 152 c 0
 335 152 316 148 301 146 c 1
 269 126 285 74 252 53 c 0
 247 49 241 47 236 47 c 0
 222 47 208 58 198 68 c 0
 177 89 176 142 141 142 c 0
 137 142 133 140 128 140 c 2
 120 140 l 2
 88 140 49 162 49 226 c 0
 49 241 53 254 69 254 c 0
 72 254 76 253 80 252 c 1
 120 253 161 254 200 264 c 1
 210 272 223 295 223 312 c 0
 223 322 218 330 204 330 c 2
 203 330 l 1
 194 331 185 331 176 331 c 2
 138 331 l 2
 121 331 105 332 88 336 c 1
 69 348 54 377 54 403 c 0
 54 418 59 431 71 439 c 1
 109 452 202 450 256 470 c 1
 274 527 278 587 298 644 c 1
 306 655 317 659 328 659 c 0
 343 659 393 645 393 585 c 0
 393 564 381 500 381 494 c 0
 381 482 390 479 401 479 c 0
 417 479 439 487 447 490 c 1
 456 532 456 580 485 615 c 1
 492 620 499 622 507 622 c 0
 541 622 567 579 567 554 c 0
 567 540 563 525 563 513 c 0
 563 502 567 494 584 494 c 2
 588 494 l 1
 592 495 595 495 599 495 c 0
378 269 m 0
 414 277 408 329 411 350 c 1
 404 354 396 355 389 355 c 0
 363 355 341 334 339 306 c 1
 336 300 334 293 334 286 c 0
 334 274 339 263 349 263 c 0
 353 263 373 268 378 269 c 0
EndSplineSet
Validated: 1
EndChar

StartChar: dollar
Encoding: 36 36 39
Width: 451
VWidth: 0
Flags: HW
LayerCount: 2
Fore
SplineSet
258 455 m 0
 228 455 224 450 224 443 c 0
 224 427 262 413 271 401 c 1
 317 364 362 311 362 249 c 2
 362 247 l 1
 361 211 337 179 303 167 c 0
 279 159 247 156 238 128 c 0
 228 97 228 65 222 34 c 0
 219 15 202 2 185 2 c 0
 171 2 164 11 141 33 c 0
 125 49 110 69 110 92 c 0
 110 119 127 152 127 174 c 0
 127 180 126 186 123 192 c 1
 97 206 76 230 64 257 c 1
 64 280 88 300 110 300 c 0
 112 300 115 299 117 299 c 0
 145 290 171 271 202 270 c 1
 206 268 211 268 216 268 c 0
 231 268 246 275 246 287 c 0
 246 312 164 357 129 391 c 0
 101 417 69 443 49 477 c 1
 49 508 87 521 111 532 c 0
 143 547 180 553 215 555 c 1
 234 576 229 610 234 636 c 0
 239 661 234 694 262 705 c 1
 270 711 277 713 285 713 c 0
 306 713 347 687 347 647 c 0
 347 630 342 612 342 595 c 2
 342 591 l 2
 342 577 334 559 334 545 c 0
 334 535 338 527 350 523 c 0
 379 511 398 479 399 448 c 1
 395 431 383 425 368 425 c 0
 353 425 335 432 324 441 c 1
 303 449 280 455 258 455 c 0
EndSplineSet
Validated: 1
EndChar

StartChar: percent
Encoding: 37 37 40
Width: 653
VWidth: 0
Flags: HW
LayerCount: 2
Fore
SplineSet
347 125 m 0
 347 166 380 241 459 241 c 0
 536 241 584 163 584 109 c 0
 584 30 514 -3 465 -3 c 0
 400 -3 347 60 347 125 c 0
484 131 m 1
 446 149 428 61 473 114 c 0
 477 120 482 124 484 131 c 1
74 33 m 0
 63 47 58 63 58 78 c 0
 58 106 76 133 95 156 c 0
 199 282 307 403 404 533 c 0
 428 564 455 592 474 626 c 1
 498 652 519 691 558 693 c 1
 589 688 609 655 609 624 c 0
 609 582 585 585 428 371 c 0
 348 264 255 167 171 63 c 0
 154 41 119 20 99 20 c 2
 94 20 l 1
 88 23 78 28 74 33 c 0
112 417 m 1
 72 435 40 478 40 522 c 0
 40 531 41 539 44 548 c 1
 77 592 94 654 172 654 c 0
 192 654 208 646 220 624 c 0
 240 587 283 573 283 520 c 0
 283 481 265 441 229 423 c 0
 207 413 181 404 156 404 c 0
 141 404 125 407 112 417 c 1
142 533 m 0
 142 531 144 515 153 515 c 0
 164 515 183 532 187 539 c 1
 187 544 l 2
 187 556 181 561 172 561 c 0
 159 561 142 549 142 533 c 0
EndSplineSet
Validated: 1
EndChar

StartChar: ampersand
Encoding: 38 38 41
Width: 472
VWidth: 0
Flags: HW
LayerCount: 2
Fore
SplineSet
312 388 m 0
 312 386 312 384 312 382 c 0
 312 340 265 338 234 334 c 1
 206 319 164 307 162 270 c 1
 170 245 201 239 226 239 c 2
 239 239 l 1
 278 243 312 265 349 273 c 1
 378 268 410 239 410 208 c 0
 410 168 345 153 316 135 c 0
 287 117 284 83 284 52 c 0
 284 47 284 43 284 38 c 0
 284 17 270 0 251 0 c 0
 227 0 180 29 176 96 c 1
 177 101 178 107 178 111 c 0
 178 140 157 161 131 170 c 1
 86 207 52 263 52 322 c 2
 52 327 l 1
 58 389 133 394 133 444 c 0
 133 456 130 468 129 479 c 0
 129 486 127 494 127 500 c 0
 127 507 129 513 137 517 c 1
 173 553 212 588 262 602 c 1
 317 635 289 767 343 767 c 0
 376 767 411 734 411 688 c 2
 411 680 l 2
 411 642 395 606 393 569 c 1
 397 548 418 524 418 502 c 0
 418 480 404 475 389 475 c 0
 363 475 336 491 311 498 c 1
 291 493 256 473 249 454 c 1
 271 433 312 426 312 388 c 0
EndSplineSet
Validated: 1
EndChar

StartChar: colon
Encoding: 58 58 42
Width: 260
VWidth: 0
Flags: HW
LayerCount: 2
Fore
SplineSet
95 11 m 0
 74 22 50 64 50 89 c 0
 50 126 68 150 91 150 c 0
 98 150 105 148 113 144 c 0
 134 133 180 80 180 66 c 0
 180 43 170 24 150 12 c 0
 137 4 130 1 122 1 c 0
 115 1 108 4 95 11 c 0
102 263 m 0
 83 279 69 313 69 341 c 0
 69 349 70 356 73 363 c 0
 78 376 87 383 101 383 c 0
 113 383 129 378 148 368 c 0
 189 345 210 320 210 294 c 0
 210 283 206 273 199 262 c 0
 191 250 174 244 156 244 c 0
 137 244 117 251 102 263 c 0
EndSplineSet
Validated: 1
EndChar

StartChar: semicolon
Encoding: 59 59 43
Width: 313
VWidth: 0
Flags: HW
LayerCount: 2
Fore
SplineSet
60 -165 m 1
 53 -163 -6 -169 -6 -133 c 0
 -6 -99 56 -37 76 8 c 0
 96 54 96 98 152 154 c 1
 158 156 163 157 169 157 c 0
 199 157 261 128 261 85 c 0
 261 62 258 21 220 -28 c 0
 135 -139 118 -127 60 -165 c 1
218 207 m 2
 188 207 143 241 143 296 c 0
 143 308 145 319 150 330 c 1
 158 335 166 339 175 339 c 0
 226 339 270 309 270 265 c 2
 270 260 l 2
 270 233 249 207 222 207 c 2
 218 207 l 2
EndSplineSet
Validated: 1
EndChar

StartChar: less
Encoding: 60 60 44
Width: 480
VWidth: 0
Flags: HW
LayerCount: 2
Fore
SplineSet
428 479 m 0
 428 425 190 285 190 256 c 0
 190 243 213 228 271 189 c 0
 356 132 367 120 367 84 c 0
 367 53 356 38 335 38 c 0
 302 38 250 74 105 185 c 0
 65 215 47 244 47 272 c 0
 47 276 47 281 48 285 c 0
 54 314 114 375 186 425 c 0
 286 495 335 549 362 549 c 0
 392 549 428 502 428 479 c 0
EndSplineSet
Validated: 1
EndChar

StartChar: greater
Encoding: 62 62 45
Width: 482
VWidth: 0
Flags: HW
LayerCount: 2
Fore
SplineSet
44 467 m 0
 44 493 63 500 75 500 c 0
 101 500 229 451 364 364 c 0
 418 329 434 319 434 281 c 0
 434 271 432 261 430 252 c 1
 419 234 395 228 380 213 c 1
 358 196 336 179 313 164 c 0
 227 105 180 42 136 42 c 0
 128 42 116 42 94 65 c 0
 84 75 65 89 65 104 c 0
 65 133 227 254 272 300 c 1
 187 356 44 388 44 467 c 0
EndSplineSet
Validated: 1
EndChar

StartChar: equal
Encoding: 61 61 46
Width: 617
VWidth: 0
Flags: HW
LayerCount: 2
Fore
SplineSet
111 120 m 2
 95 136 87 155 87 174 c 0
 87 188 91 201 99 212 c 0
 110 227 118 230 174 230 c 0
 195 230 225 229 255 229 c 0
 275 229 294 231 310 231 c 2
 468 231 l 2
 506 231 530 228 536 221 c 0
 546 210 551 188 551 168 c 0
 551 152 548 137 541 130 c 0
 524 110 396 106 247 101 c 2
 134 97 l 1
 111 120 l 2
58 301 m 0
 47 312 41 334 41 356 c 0
 41 372 44 389 52 399 c 1
 60 411 69 413 206 413 c 2
 307 413 l 1
 552 411 l 1
 562 387 l 2
 566 377 568 368 568 357 c 0
 568 349 567 340 565 331 c 0
 556 289 547 282 385 282 c 2
 291 282 l 1
 81 284 75 284 58 301 c 0
EndSplineSet
Validated: 1
EndChar

StartChar: question
Encoding: 63 63 47
Width: 532
VWidth: 0
Flags: HW
LayerCount: 2
Fore
SplineSet
190 22 m 0
 129 22 111 94 111 117 c 0
 111 133 118 153 145 153 c 0
 163 153 194 142 206 130 c 0
 221 117 234 88 234 68 c 0
 234 47 213 22 190 22 c 0
218 246 m 0
 167 246 105 294 105 371 c 0
 105 487 282 529 366 641 c 0
 367 643 367 645 367 647 c 0
 367 658 354 660 339 660 c 0
 328 660 317 659 309 659 c 2
 304 659 l 1
 161 650 136 593 109 593 c 0
 79 593 46 642 46 662 c 0
 46 712 148 766 276 766 c 0
 306 766 337 763 367 759 c 0
 419 752 488 708 488 631 c 0
 488 601 477 573 457 550 c 0
 379 464 253 405 212 341 c 1
 223 322 245 301 245 275 c 0
 245 266 245 246 218 246 c 0
EndSplineSet
Validated: 1
EndChar

StartChar: asterisk
Encoding: 42 42 48
Width: 584
VWidth: 0
Flags: HW
LayerCount: 2
Fore
SplineSet
305 119 m 2
 235 119 243 165 216 215 c 1
 183 201 157 170 118 170 c 0
 117 170 116 170 115 170 c 0
 84 170 53 196 53 228 c 2
 53 230 l 1
 58 262 90 276 112 295 c 0
 132 312 154 327 176 342 c 1
 144 373 102 403 98 451 c 0
 97 455 96 459 96 463 c 0
 96 482 110 501 129 501 c 0
 141 501 168 496 206 458 c 1
 234 468 218 509 229 532 c 1
 231 555 250 571 271 571 c 0
 300 571 339 540 344 483 c 0
 344 481 344 479 344 477 c 0
 344 470 347 467 351 467 c 0
 362 467 380 481 386 488 c 1
 411 503 433 528 463 528 c 2
 468 528 l 2
 498 528 522 507 533 480 c 1
 540 474 542 467 542 461 c 0
 542 425 460 392 396 335 c 1
 398 311 430 306 445 290 c 1
 472 271 511 249 511 213 c 0
 511 186 485 164 458 164 c 0
 429 164 389 200 348 220 c 1
 347 220 l 2
 339 220 337 214 337 206 c 0
 337 198 339 188 339 180 c 0
 339 177 339 175 338 173 c 0
 338 171 338 169 338 167 c 0
 338 158 339 147 339 138 c 0
 339 127 337 118 324 118 c 0
 322 118 319 118 316 119 c 1
 305 119 l 2
EndSplineSet
Validated: 1
EndChar

StartChar: parenleft
Encoding: 40 40 49
Width: 428
VWidth: 0
Flags: HW
LayerCount: 2
Fore
SplineSet
177 314 m 0
 177 210 250 173 250 87 c 0
 250 60 240 43 227 43 c 0
 175 43 114 137 96 170 c 0
 69 219 53 267 53 338 c 0
 53 447 62 492 137 573 c 0
 210 651 274 680 308 680 c 0
 323 680 338 675 346 661 c 1
 357 647 371 630 371 613 c 0
 371 577 290 525 265 500 c 0
 182 417 177 346 177 314 c 0
EndSplineSet
Validated: 1
EndChar

StartChar: parenright
Encoding: 41 41 50
Width: 330
VWidth: 0
Flags: HW
LayerCount: 2
Fore
SplineSet
99 675 m 0
 149 675 293 546 293 344 c 0
 293 264 270 184 227 116 c 1
 211 87 191 51 155 47 c 0
 152 47 150 46 147 46 c 0
 99 46 79 109 66 138 c 1
 84 172 102 205 125 236 c 1
 144 277 160 319 165 364 c 1
 165 371 l 2
 165 530 74 547 63 635 c 0
 62 638 62 641 62 643 c 0
 62 664 80 675 99 675 c 0
EndSplineSet
Validated: 1
EndChar

StartChar: quotesingle
Encoding: 39 39 51
Width: 248
VWidth: 0
Flags: HW
LayerCount: 2
Fore
SplineSet
112 798 m 0
 145 798 205 779 205 697 c 0
 205 684 203 606 163 525 c 0
 152 502 119 487 91 487 c 0
 69 487 50 496 46 519 c 0
 45 526 44 533 44 539 c 0
 44 568 64 631 64 706 c 0
 64 724 63 741 60 759 c 0
 60 761 59 763 59 765 c 0
 59 794 100 798 112 798 c 0
EndSplineSet
Validated: 1
EndChar

StartChar: plus
Encoding: 43 43 52
Width: 551
VWidth: 0
Flags: HW
LayerCount: 2
Fore
SplineSet
392 370 m 2
 408 370 l 2
 440 370 476 362 492 331 c 0
 498 319 507 304 507 290 c 0
 507 284 505 278 501 273 c 1
 490 250 459 249 418 249 c 0
 414 249 l 0
 388 249 358 249 328 243 c 1
 323 231 321 220 321 208 c 0
 321 198 323 187 323 174 c 2
 323 164 l 2
 323 142 320 114 299 100 c 1
 295 95 291 93 287 93 c 0
 286 93 217 96 208 187 c 0
 207 201 209 235 192 235 c 0
 183 235 158 225 135 225 c 0
 73 225 50 279 50 310 c 0
 50 346 76 345 104 354 c 0
 140 366 180 364 215 378 c 1
 242 403 232 495 282 514 c 0
 285 515 287 515 290 515 c 0
 312 515 327 493 338 476 c 0
 349 460 352 441 352 422 c 0
 352 414 352 406 351 398 c 1
 351 394 l 2
 351 373 373 370 392 370 c 2
EndSplineSet
Validated: 1
EndChar

StartChar: hyphen
Encoding: 45 45 53
Width: 535
VWidth: 0
Flags: HW
LayerCount: 2
Fore
SplineSet
79 241 m 0
 57 267 48 284 48 302 c 0
 48 349 64 349 283 352 c 1
 322 352 l 2
 436 352 457 342 481 299 c 0
 489 285 492 277 492 269 c 0
 492 263 490 258 485 249 c 2
 473 228 l 1
 284 225 l 2
 235 224 198 224 171 224 c 0
 95 224 90 228 79 241 c 0
EndSplineSet
Validated: 1
EndChar

StartChar: comma
Encoding: 44 44 54
Width: 268
VWidth: 0
Flags: HW
LayerCount: 2
Fore
SplineSet
41 -187 m 0
 15 -187 -0 -186 -10 -172 c 0
 -16 -163 -22 -153 -22 -143 c 0
 -22 -131 14 -91 31 -64 c 0
 49 -36 51 6 61 33 c 0
 81 84 68 96 100 142 c 0
 109 154 145 173 159 173 c 0
 160 173 161 173 162 173 c 0
 197 164 233 131 234 94 c 2
 235 68 l 1
 227 36 225 30 210 0 c 0
 186 -49 155 -121 84 -166 c 0
 76 -171 52 -187 41 -187 c 0
EndSplineSet
Validated: 1
EndChar

StartChar: period
Encoding: 46 46 55
Width: 232
VWidth: 0
Flags: HW
LayerCount: 2
Fore
SplineSet
81 23 m 0
 59 42 45 81 45 111 c 0
 45 121 47 131 50 139 c 0
 58 158 71 168 89 168 c 0
 100 168 117 164 131 156 c 0
 166 135 185 103 185 72 c 0
 185 34 155 8 124 8 c 0
 110 8 93 13 81 23 c 0
EndSplineSet
Validated: 1
EndChar

StartChar: slash
Encoding: 47 47 56
Width: 559
VWidth: 0
Flags: HW
LayerCount: 2
Fore
SplineSet
109 18 m 0
 87 18 38 42 38 88 c 0
 38 139 125 255 158 299 c 0
 238 407 319 513 407 614 c 1
 416 630 432 637 449 637 c 0
 503 637 514 595 517 575 c 0
 517 573 517 571 517 569 c 0
 517 512 328 312 162 55 c 1
 156 34 132 18 109 18 c 0
EndSplineSet
Validated: 1
EndChar

StartChar: quotedbl
Encoding: 34 34 57
Width: 372
VWidth: 0
Flags: HW
LayerCount: 2
Fore
SplineSet
265 832 m 0
 282 832 318 794 318 762 c 0
 318 753 316 743 316 730 c 0
 312 622 320 542 246 525 c 0
 243 524 241 524 238 524 c 0
 213 524 194 550 194 606 c 2
 194 614 l 2
 194 643 195 662 195 677 c 0
 195 691 194 701 193 711 c 0
 193 713 192 715 192 718 c 0
 192 756 231 832 265 832 c 0
127 824 m 0
 172 824 183 754 183 693 c 0
 183 659 179 624 172 594 c 0
 163 556 157 545 123 529 c 0
 119 527 113 526 107 526 c 0
 66 526 56 553 56 584 c 0
 56 609 59 597 59 647 c 0
 59 705 54 703 54 730 c 0
 54 781 92 824 127 824 c 0
EndSplineSet
Validated: 1
EndChar

StartChar: bracketleft
Encoding: 91 91 58
Width: 447
VWidth: 0
Flags: HW
LayerCount: 2
Fore
SplineSet
182 38 m 0
 151 41 119 37 90 51 c 0
 63 73 46 107 46 141 c 0
 46 146 46 150 47 155 c 0
 55 238 59 319 68 399 c 0
 74 451 76 489 85 551 c 0
 90 587 92 621 117 648 c 0
 131 656 147 657 163 657 c 0
 170 657 178 657 185 657 c 0
 188 657 190 657 193 657 c 0
 203 656 214 656 226 656 c 0
 238 656 l 0
 271 656 307 656 332 648 c 0
 362 633 400 608 400 571 c 0
 400 570 400 569 400 568 c 0
 399 535 353 536 329 534 c 1
 212 523 l 1
 203 469 202 446 199 404 c 0
 193 330 190 264 177 188 c 1
 178 174 186 170 197 170 c 0
 212 170 233 171 246 172 c 0
 253 175 260 172 268 172 c 0
 273 172 279 172 284 172 c 0
 295 172 304 171 310 159 c 0
 325 137 343 106 345 79 c 1
 338 57 321 32 295 32 c 0
 294 32 292 32 290 32 c 0
 254 34 218 36 182 38 c 0
EndSplineSet
Validated: 1
EndChar

StartChar: bracketright
Encoding: 93 93 59
Width: 399
VWidth: 0
Flags: HW
LayerCount: 2
Fore
SplineSet
93 45 m 0
 71 60 46 84 46 111 c 0
 46 114 46 118 47 121 c 0
 57 150 94 151 118 154 c 0
 121 154 123 154 126 154 c 0
 133 154 141 154 148 154 c 0
 164 154 179 155 193 163 c 1
 201 174 202 187 202 200 c 0
 202 204 202 208 202 212 c 0
 202 220 202 227 204 235 c 0
 215 333 215 421 220 517 c 1
 180 522 136 529 109 562 c 0
 100 572 93 588 93 602 c 0
 93 614 98 626 109 633 c 0
 134 644 163 640 190 642 c 0
 235 641 267 641 311 633 c 1
 329 619 352 606 352 582 c 0
 352 580 351 578 351 575 c 0
 350 513 346 456 343 394 c 0
 339 302 332 208 323 112 c 0
 321 89 322 58 296 48 c 0
 262 35 223 30 185 30 c 0
 169 30 153 31 138 32 c 0
 122 34 107 37 93 45 c 0
EndSplineSet
Validated: 1
EndChar

StartChar: underscore
Encoding: 95 95 60
Width: 636
VWidth: 0
Flags: HW
LayerCount: 2
Fore
SplineSet
58 21 m 0
 92 21 126 8 397 8 c 2
 558 8 l 1
 587 -20 l 2
 608 -40 616 -54 616 -73 c 0
 616 -103 593 -130 568 -130 c 0
 567 -130 566 -130 565 -130 c 0
 518 -125 144 -109 98 -102 c 0
 56 -96 18 -57 18 -21 c 0
 18 9 29 21 58 21 c 0
EndSplineSet
Validated: 1
EndChar

StartChar: asciitilde
Encoding: 126 126 61
Width: 560
VWidth: 0
Flags: HW
LayerCount: 2
Fore
SplineSet
355 315 m 0
 403 315 420 409 464 409 c 0
 483 409 515 368 515 330 c 0
 515 310 497 254 474 221 c 0
 457 196 429 181 399 181 c 0
 399 181 336 185 316 197 c 0
 242 240 226 326 187 326 c 0
 182 326 178 325 173 323 c 8
 135 306 126 280 88 257 c 0
 82 254 75 251 67 251 c 0
 55 251 44 255 44 265 c 0
 44 288 117 375 136 392 c 0
 163 416 182 420 197 420 c 0
 202 420 207 419 211 419 c 0
 231 418 267 403 282 390 c 0
 321 358 323 315 355 315 c 0
EndSplineSet
Validated: 1
EndChar

StartChar: backslash
Encoding: 92 92 62
Width: 578
VWidth: 0
Flags: HW
LayerCount: 2
Fore
SplineSet
429 57 m 1
 396 76 371 107 344 133 c 0
 275 202 219 281 157 356 c 1
 128 380 120 420 91 444 c 1
 71 472 51 501 40 534 c 1
 46 560 75 576 101 576 c 0
 104 576 107 575 110 575 c 0
 153 571 180 531 205 500 c 0
 294 384 381 267 486 165 c 1
 505 143 531 122 532 91 c 1
 528 64 499 52 475 52 c 0
 474 52 473 52 472 52 c 0
 458 52 443 54 429 57 c 1
EndSplineSet
Validated: 1
EndChar

StartChar: guillemotleft
Encoding: 171 171 63
Width: 388
VWidth: 0
Flags: HWO
LayerCount: 2
Fore
SplineSet
174 719 m 0
 174 648 247 555 247 514 c 0
 247 511 246 509 246 507 c 0
 243 492 225 485 210 485 c 0
 146 485 48 645 48 721 c 0
 48 735 50 751 54 770 c 0
 56 778 58 789 77 789 c 0
 106 789 175 759 175 731 c 2
 175 727 l 2
 175 725 174 722 174 719 c 0
338 507 m 0
 252 507 189 656 189 721 c 0
 189 762 212 770 227 770 c 0
 254 770 292 736 307 691 c 0
 329 623 378 581 378 541 c 0
 378 510 358 508 353 508 c 0
 352 508 352 508 352 508 c 0
 347 508 342 507 338 507 c 0
EndSplineSet
Validated: 1
EndChar

StartChar: guillemotright
Encoding: 187 187 64
Width: 413
VWidth: 0
Flags: HW
LayerCount: 2
Fore
SplineSet
202 428 m 0
 185 428 134 441 134 491 c 0
 134 516 149 537 150 560 c 1
 127 530 111 464 73 464 c 0
 59 464 45 472 32 479 c 0
 16 488 9 506 9 524 c 0
 9 531 8 538 8 545 c 0
 8 589 33 606 44 640 c 0
 59 686 82 729 101 774 c 1
 128 770 196 771 196 694 c 0
 196 652 175 627 175 610 c 0
 175 607 175 605 176 603 c 1
 184 618 196 630 204 645 c 0
 227 683 252 751 289 751 c 0
 332 751 365 715 365 671 c 2
 365 666 l 2
 365 655 360 634 282 509 c 0
 246 451 229 428 202 428 c 0
EndSplineSet
Validated: 1
EndChar
